<svg xmlns="http://www.w3.org/2000/svg" xmlns:xlink="http://www.w3.org/1999/xlink" viewBox="0 0 541 565.34"><defs><style>.cls-1{fill:none;}.cls-2{fill:#fff;}.cls-3{fill:#e5e0da;}.cls-4{clip-path:url(#clip-path);}.cls-5{fill:#302b28;}.cls-6{fill:#272121;}.cls-7{fill:#b7b3b0;}.cls-8{clip-path:url(#clip-path-2);}.cls-9{fill:#939393;}.cls-10{fill:#42210b;}.cls-11{clip-path:url(#clip-path-3);}.cls-12{clip-path:url(#clip-path-4);}.cls-13{fill:#4f3b38;}.cls-14{fill:#f2633d;}.cls-15{fill:#efedea;}.cls-16{fill:#eaeaea;}</style><clipPath id="clip-path"><path class="cls-1" d="M187,325c1,52-1,107-20,121S0,486,0,486s11,47,255,45,265-48,265-48-170-31-175-48,2-123,2-123Z"/></clipPath><clipPath id="clip-path-2"><path class="cls-1" d="M287,183c-3.14,2.71-10.75,12.12-13,30-1.66,13.19,1.33,34,6,48,3.81,11.42-19,18-9,18,14,0,9-6,15-6,5.39,0,3.7,6.57,10,6,11-1,12-11,7-16-3.65-3.65-22.27-21.81-20-42,.54-4.81.42-13.45,4-23C290,190,288.36,181.83,287,183Z"/></clipPath><clipPath id="clip-path-3"><path class="cls-2" d="M305,203c2-2,12-13,25-12s28.62,10.37,28.62,10.37-33.85,7-40.74,5.31S308,205,306,205,305,203,305,203Z"/></clipPath><clipPath id="clip-path-4"><path class="cls-2" d="M223.76,203.4c-2-2-12.08-13.32-23.73-11.21s-24.89,13.6-24.89,13.6,31.26,5,37.32,2.64,8.77-2.61,10.58-2.77S223.76,203.4,223.76,203.4Z"/></clipPath></defs><title>资源 1</title><g id="图层_2" data-name="图层 2"><g id="图层_3" data-name="图层 3"><path class="cls-3" d="M187,325c1,52-1,107-20,121S0,486,0,486s11,47,255,45,265-48,265-48-170-31-175-48,2-123,2-123Z"/><g class="cls-4"><path class="cls-5" d="M180,339c11,35.48,39.66,105.82,91,146,46,36,126,95,146,77s124-55,124-55L436,370.11,406,331,258,356.52"/></g></g><g id="图层_1-2" data-name="图层 1"><path id="hair-back" class="cls-6" d="M280,238c-124.31-2.07-159,131-159,131l45,38s12.35,4.28,15,0c5.26-8.51,9-52,9-52l179,4S400,240,280,238Z"/><path id="face" class="cls-3" d="M393,210.5a257.33,257.33,0,0,1-7,60.12c-7.72,32.09-3.78,57.73-33,79.38-26.58,19.69-54.84,42-84.5,42-26.92,0-47.35-18-72.2-33.62C156,333,153,292.91,146.56,247.29A263.25,263.25,0,0,1,144,210.5C144,110.26,199.74,29,268.5,29S393,110.26,393,210.5Z"/><path class="cls-7" d="M287,183c-3.14,2.71-10.75,12.12-13,30-1.66,13.19,1.33,34,6,48,3.81,11.42-19,18-9,18,14,0,9-6,15-6,5.39,0,3.7,6.57,10,6,11-1,12-11,7-16-3.65-3.65-22.27-21.81-20-42,.54-4.81,13-14,23-16,39.66-7.93,64.2-5.6,63-6-2-.66-5.76-29.42-27-31C331.16,167.19,288.36,181.83,287,183Z"/><g class="cls-8"><path class="cls-9" d="M287,183c-3.14,2.71-10.75,12.12-13,30-1.66,13.19,1.33,34,6,48,3.81,11.42-19,18-9,18,14,0,9-6,15-6,5.39,0,3.7,6.57,10,6,11-1,12-11,7-16-3.65-3.65-22.27-21.81-20-42,.54-4.81,13-14,23-16,39.66-7.93,64.2-5.6,63-6-2-.66-5.76-29.42-27-31C331.16,167.19,288.36,181.83,287,183Z"/></g><g id="eyebrow"><path class="cls-6" d="M180,152c11,1,43.7,11.77,48,13,7,2,4,12.91,1,12-10-3-43-12-49-13s-24,4-24,4Z"/><path class="cls-6" d="M288,168c3.16-3.16,45-18,52-18,4.12,0,15.61,6.61,21,12,1,1,4.21,5,2,5-4.62,0-15.59-5.32-21-6-8-1-43,15-50,15S287,169,288,168Z"/></g><path id="hair" class="cls-10" d="M436,316c0,10.84-21.79,51.47-35,61-39.62,28.58-102.16,18.31-76,1,68-45,73-159,46-213-22.13-44.27-34.28-110-60-110-28.56,0-84,81-146,156-17.31,20.94-8.53,144.51,4,168,48,90-86.13,25.7-96-1-8.49-23-9-75,1-131,1.26-7.05,16-79,32-118C145.08,33.73,192.21,0,260,0c16,0,18,5,30,9,17.35,5.78,24-1.15,39,7C383.21,45.5,436,224,436,316Z"/><g id="eyes1"><path class="cls-10" d="M360,199.5c3.78,1.7-13.45,5.63-30,6.5-19,1-29,2-29,0,0-4.14,15-19,35-17C347,190.1,350,195,360,199.5Z"/><path id="outside" class="cls-6" d="M305,203c2-2,12-13,25-12s28.62,10.37,28.62,10.37-33.85,7-40.74,5.31S308,205,306,205,305,203,305,203Z"/><path class="cls-2" d="M305,203c2-2,12-13,25-12s28.62,10.37,28.62,10.37-33.85,7-40.74,5.31S308,205,306,205,305,203,305,203Z"/><g class="cls-11"><circle class="cls-6" cx="323" cy="196" r="10"/></g></g><g id="eyes1-2" data-name="eyes1"><path class="cls-10" d="M173.72,203.85c-3.25,2.16,12.69,5.12,27.73,4.79,17.27-.39,26.4-.07,26.21-2.26-.39-4.54-15.36-19.66-33.24-15.91C184.59,192.53,182.33,198.14,173.72,203.85Z"/><path id="outside-2" data-name="outside" class="cls-6" d="M223.76,203.4c-2-2-12.08-13.32-23.73-11.21s-24.89,13.6-24.89,13.6,31.26,5,37.32,2.64,8.77-2.61,10.58-2.77S223.76,203.4,223.76,203.4Z"/><path class="cls-2" d="M223.76,203.4c-2-2-12.08-13.32-23.73-11.21s-24.89,13.6-24.89,13.6,31.26,5,37.32,2.64,8.77-2.61,10.58-2.77S223.76,203.4,223.76,203.4Z"/><g class="cls-12"><ellipse class="cls-6" cx="206.09" cy="197.19" rx="9.41" ry="11.01" transform="translate(-16.2 18.46) rotate(-4.94)"/></g></g><path id="bikong" class="cls-13" d="M255,277c0,.83-2.46-1-5.5-1s-5.5,1.83-5.5,1,2.46-4,5.5-4S255,276.17,255,277Z"/><path id="bikong-2" data-name="bikong" class="cls-13" d="M291,277c0,.83-2.46-1-5.5-1s-5.5,1.83-5.5,1,2.46-4,5.5-4S291,276.17,291,277Z"/><path id="redlip" class="cls-14" d="M222,313c6-2,30-8,35-8s9,3,12,2a50.67,50.67,0,0,1,13-2c5,0,30,7,30,7s-6.95,14.07-12,18c-9,7-13,9-20,10-4.08.58-20,1-28-2-9.22-3.46-10.65-5.5-17-11A95.43,95.43,0,0,1,222,313Z"/><path id="teeth" class="cls-15" d="M231,315c7,0,10-2,18-2,3.06,0,10.23.88,19,1,5.63.08,11.29-1.88,17-2,8.79-.18,17,1.38,20,1,8-1-16,10.56-20,11-9,1-27,1-34-1S231,315,231,315Z"/><path id="renzhong" class="cls-7" d="M258,299s4-16,9-16c3.61,0,10,16,10,16a77.21,77.21,0,0,1-10,1A77.54,77.54,0,0,1,258,299Z"/><path id="_hi-lip-light_" data-name="&lt;hi-lip-light&gt;" class="cls-3" d="M271,333c0,1.38-3.37,2-10,2s-12-1.62-12-3,5.37-1,12-1S271,331.62,271,333Z"/><path id="hi-lip-light2" class="cls-3" d="M290,331c0,1.1-2.91,3-6.5,3s-3.5.1-3.5-1c0-2,2-1,6-2C289.48,330.13,290,329.9,290,331Z"/><path id="hi-light" class="cls-16" d="M169,237c20,12,38.43,8.23,50,1,8-5,3,20-5,30-9.7,12.12-38.09,3.63-44-7C165,252,169,237,169,237Z"/></g></g></svg>